<svg width="16" height="16" viewBox="0 0 16 16" fill="none" xmlns="http://www.w3.org/2000/svg">
<g clip-path="url(#clip0_594_2775)">
<g clip-path="url(#clip1_594_2775)">
<path d="M7.99999 1.3335C11.682 1.3335 14.6667 4.31816 14.6667 8.00016C14.6667 11.6822 11.682 14.6668 7.99999 14.6668C4.31799 14.6668 1.33333 11.6822 1.33333 8.00016C1.33333 4.31816 4.31799 1.3335 7.99999 1.3335ZM7.99999 2.66683C6.58551 2.66683 5.22895 3.22873 4.22876 4.22893C3.22856 5.22912 2.66666 6.58567 2.66666 8.00016C2.66666 9.41465 3.22856 10.7712 4.22876 11.7714C5.22895 12.7716 6.58551 13.3335 7.99999 13.3335C9.41448 13.3335 10.771 12.7716 11.7712 11.7714C12.7714 10.7712 13.3333 9.41465 13.3333 8.00016C13.3333 6.58567 12.7714 5.22912 11.7712 4.22893C10.771 3.22873 9.41448 2.66683 7.99999 2.66683ZM7.99999 4.00016C8.16328 4.00018 8.32089 4.06013 8.44291 4.16864C8.56493 4.27715 8.64289 4.42666 8.66199 4.58883L8.66666 4.66683V7.72416L10.4713 9.52883C10.5909 9.6488 10.6603 9.80978 10.6655 9.97908C10.6706 10.1484 10.6112 10.3133 10.4992 10.4403C10.3871 10.5674 10.231 10.647 10.0623 10.6631C9.89373 10.6792 9.72532 10.6304 9.59133 10.5268L9.52866 10.4715L7.52866 8.4715C7.42505 8.36779 7.3585 8.23283 7.33933 8.0875L7.33333 8.00016V4.66683C7.33333 4.49002 7.40357 4.32045 7.52859 4.19542C7.65361 4.0704 7.82318 4.00016 7.99999 4.00016Z" fill="#CBCBCB"/>
</g>
</g>
<defs>
<clipPath id="clip0_594_2775">
<rect width="16" height="16" fill="white"/>
</clipPath>
<clipPath id="clip1_594_2775">
<rect width="16" height="16" fill="white"/>
</clipPath>
</defs>
</svg>
