<svg width="460" height="48" viewBox="0 0 460 48" fill="none" xmlns="http://www.w3.org/2000/svg">
<rect x="0.5" y="0.5" width="459" height="47" rx="7.5" stroke="#9D9797"/>
<g clip-path="url(#clip0_27_1132)">
<path d="M141.733 15.4752C139.909 16.1078 138.337 17.3085 137.246 18.9008C136.155 20.4932 135.604 22.3933 135.673 24.3222C135.742 26.251 136.428 28.1068 137.63 29.6171C138.832 31.1274 140.486 32.2124 142.35 32.7129C143.861 33.1029 145.445 33.12 146.964 32.7628C148.34 32.4537 149.613 31.7924 150.657 30.8437C151.743 29.8262 152.532 28.5318 152.938 27.0996C153.379 25.5422 153.458 23.9044 153.168 22.3119H144.681V25.8321H149.596C149.498 26.3936 149.287 26.9294 148.977 27.4077C148.667 27.8859 148.264 28.2966 147.791 28.6152C147.191 29.0122 146.514 29.2793 145.805 29.3994C145.093 29.5317 144.363 29.5317 143.652 29.3994C142.931 29.2503 142.248 28.9527 141.649 28.5254C140.685 27.8433 139.961 26.8743 139.581 25.7566C139.195 24.6179 139.195 23.3835 139.581 22.2449C139.852 21.4467 140.299 20.72 140.89 20.119C141.566 19.4186 142.422 18.9179 143.364 18.672C144.306 18.426 145.297 18.4442 146.23 18.7246C146.958 18.9481 147.624 19.3387 148.174 19.8652C148.729 19.3139 149.282 18.7612 149.834 18.207C150.119 17.9091 150.43 17.6253 150.711 17.3202C149.871 16.5381 148.884 15.9296 147.808 15.5294C145.849 14.8179 143.705 14.7988 141.733 15.4752Z" fill="white"/>
<path d="M141.733 15.4753C143.704 14.7984 145.848 14.817 147.808 15.528C148.884 15.9309 149.87 16.5424 150.709 17.3274C150.424 17.6325 150.123 17.9176 149.832 18.2142C149.279 18.7665 148.727 19.3168 148.174 19.8653C147.624 19.3388 146.958 18.9482 146.23 18.7246C145.298 18.4432 144.306 18.424 143.364 18.6689C142.422 18.9139 141.565 19.4137 140.889 20.1133C140.298 20.7144 139.85 21.4411 139.58 22.2392L136.624 19.9508C137.682 17.8529 139.514 16.2481 141.733 15.4753Z" fill="#E33629"/>
<path d="M135.84 22.2176C135.999 21.4303 136.262 20.6679 136.624 19.9507L139.58 22.2447C139.193 23.3834 139.193 24.6178 139.58 25.7564C138.595 26.5169 137.61 27.2811 136.624 28.0491C135.719 26.2474 135.443 24.1945 135.84 22.2176Z" fill="#F8BD00"/>
<path d="M144.681 22.3106H153.167C153.457 23.9031 153.379 25.5409 152.938 27.0984C152.531 28.5305 151.743 29.8249 150.656 30.8425C149.702 30.0982 148.744 29.3596 147.79 28.6154C148.263 28.2964 148.667 27.8852 148.977 27.4065C149.287 26.9278 149.498 26.3914 149.595 25.8294H144.681C144.679 24.6574 144.681 23.484 144.681 22.3106Z" fill="#587DBD"/>
<path d="M136.623 28.0492C137.608 27.2888 138.593 26.5246 139.578 25.7566C139.959 26.8747 140.684 27.8438 141.648 28.5255C142.25 28.9507 142.934 29.246 143.656 29.3923C144.367 29.5246 145.097 29.5246 145.809 29.3923C146.518 29.2722 147.195 29.0051 147.795 28.6082C148.749 29.3524 149.707 30.091 150.661 30.8352C149.617 31.7844 148.345 32.4462 146.968 32.7558C145.449 33.1129 143.865 33.0958 142.354 32.7058C141.159 32.3867 140.043 31.8241 139.075 31.0534C138.051 30.2402 137.214 29.2155 136.623 28.0492Z" fill="#319F43"/>
</g>
<path d="M167.969 29.1406C167.109 29.9271 166.01 30.3203 164.672 30.3203C163.016 30.3203 161.714 29.7891 160.766 28.7266C159.818 27.6589 159.344 26.1953 159.344 24.3359C159.344 22.3255 159.883 20.776 160.961 19.6875C161.898 18.7396 163.091 18.2656 164.539 18.2656C166.477 18.2656 167.893 18.901 168.789 20.1719C169.284 20.8854 169.549 21.6016 169.586 22.3203H167.18C167.023 21.7682 166.823 21.3516 166.578 21.0703C166.141 20.5703 165.492 20.3203 164.633 20.3203C163.758 20.3203 163.068 20.6745 162.562 21.3828C162.057 22.0859 161.805 23.0833 161.805 24.375C161.805 25.6667 162.07 26.6354 162.602 27.2812C163.138 27.9219 163.818 28.2422 164.641 28.2422C165.484 28.2422 166.128 27.9661 166.57 27.4141C166.815 27.1172 167.018 26.6719 167.18 26.0781H169.562C169.354 27.3333 168.823 28.3542 167.969 29.1406ZM178.328 22.5625C179.047 23.4635 179.406 24.5286 179.406 25.7578C179.406 27.0078 179.047 28.0781 178.328 28.9688C177.609 29.8542 176.518 30.2969 175.055 30.2969C173.591 30.2969 172.5 29.8542 171.781 28.9688C171.062 28.0781 170.703 27.0078 170.703 25.7578C170.703 24.5286 171.062 23.4635 171.781 22.5625C172.5 21.6615 173.591 21.2109 175.055 21.2109C176.518 21.2109 177.609 21.6615 178.328 22.5625ZM175.047 23.0938C174.396 23.0938 173.893 23.3255 173.539 23.7891C173.19 24.2474 173.016 24.9036 173.016 25.7578C173.016 26.612 173.19 27.2708 173.539 27.7344C173.893 28.1979 174.396 28.4297 175.047 28.4297C175.698 28.4297 176.198 28.1979 176.547 27.7344C176.896 27.2708 177.07 26.612 177.07 25.7578C177.07 24.9036 176.896 24.2474 176.547 23.7891C176.198 23.3255 175.698 23.0938 175.047 23.0938ZM185.016 23.1328C184.26 23.1328 183.742 23.4531 183.461 24.0938C183.315 24.4323 183.242 24.8646 183.242 25.3906V30H181.023V21.5H183.172V22.7422C183.458 22.3047 183.729 21.9896 183.984 21.7969C184.443 21.4531 185.023 21.2812 185.727 21.2812C186.607 21.2812 187.326 21.513 187.883 21.9766C188.445 22.4349 188.727 23.1979 188.727 24.2656V30H186.445V24.8203C186.445 24.3724 186.385 24.0286 186.266 23.7891C186.047 23.3516 185.63 23.1328 185.016 23.1328ZM194.688 28.4141V30.0781L193.633 30.1172C192.581 30.1536 191.862 29.9714 191.477 29.5703C191.227 29.3151 191.102 28.9219 191.102 28.3906V23.1484H189.914V21.5625H191.102V19.1875H193.305V21.5625H194.688V23.1484H193.305V27.6484C193.305 27.9974 193.349 28.2161 193.438 28.3047C193.526 28.388 193.797 28.4297 194.25 28.4297C194.318 28.4297 194.388 28.4297 194.461 28.4297C194.539 28.4245 194.615 28.4193 194.688 28.4141ZM198.406 21.4844V30H196.148V21.4844H198.406ZM198.406 18.4141V20.4688H196.148V18.4141H198.406ZM204.578 23.1328C203.823 23.1328 203.305 23.4531 203.023 24.0938C202.878 24.4323 202.805 24.8646 202.805 25.3906V30H200.586V21.5H202.734V22.7422C203.021 22.3047 203.292 21.9896 203.547 21.7969C204.005 21.4531 204.586 21.2812 205.289 21.2812C206.169 21.2812 206.888 21.513 207.445 21.9766C208.008 22.4349 208.289 23.1979 208.289 24.2656V30H206.008V24.8203C206.008 24.3724 205.948 24.0286 205.828 23.7891C205.609 23.3516 205.193 23.1328 204.578 23.1328ZM215.812 28.7969C215.792 28.8229 215.74 28.901 215.656 29.0312C215.573 29.1615 215.474 29.276 215.359 29.375C215.01 29.6875 214.672 29.901 214.344 30.0156C214.021 30.1302 213.641 30.1875 213.203 30.1875C211.943 30.1875 211.094 29.7344 210.656 28.8281C210.411 28.3281 210.289 27.5911 210.289 26.6172V21.4844H212.57V26.6172C212.57 27.1016 212.628 27.4661 212.742 27.7109C212.945 28.1432 213.344 28.3594 213.938 28.3594C214.698 28.3594 215.219 28.0521 215.5 27.4375C215.646 27.1042 215.719 26.6641 215.719 26.1172V21.4844H217.977V30H215.812V28.7969ZM227.422 27.5C227.365 28.0052 227.102 28.5182 226.633 29.0391C225.904 29.8672 224.883 30.2812 223.57 30.2812C222.487 30.2812 221.531 29.9323 220.703 29.2344C219.875 28.5365 219.461 27.401 219.461 25.8281C219.461 24.3542 219.833 23.224 220.578 22.4375C221.328 21.651 222.299 21.2578 223.492 21.2578C224.201 21.2578 224.839 21.3906 225.406 21.6562C225.974 21.9219 226.443 22.3411 226.812 22.9141C227.146 23.4193 227.362 24.0052 227.461 24.6719C227.518 25.0625 227.542 25.625 227.531 26.3594H221.703C221.734 27.2135 222.003 27.8125 222.508 28.1562C222.815 28.3698 223.185 28.4766 223.617 28.4766C224.076 28.4766 224.448 28.3464 224.734 28.0859C224.891 27.9453 225.029 27.75 225.148 27.5H227.422ZM225.219 24.8906C225.182 24.3021 225.003 23.8568 224.68 23.5547C224.362 23.2474 223.966 23.0938 223.492 23.0938C222.977 23.0938 222.576 23.2552 222.289 23.5781C222.008 23.901 221.831 24.3385 221.758 24.8906H225.219ZM239.953 30L238.617 23.7969L237.266 30H234.953L232.562 21.4844H234.953L236.281 27.5938L237.508 21.4844H239.766L241.062 27.6172L242.391 21.4844H244.711L242.242 30H239.953ZM248.234 21.4844V30H245.977V21.4844H248.234ZM248.234 18.4141V20.4688H245.977V18.4141H248.234ZM254.297 28.4141V30.0781L253.242 30.1172C252.19 30.1536 251.471 29.9714 251.086 29.5703C250.836 29.3151 250.711 28.9219 250.711 28.3906V23.1484H249.523V21.5625H250.711V19.1875H252.914V21.5625H254.297V23.1484H252.914V27.6484C252.914 27.9974 252.958 28.2161 253.047 28.3047C253.135 28.388 253.406 28.4297 253.859 28.4297C253.927 28.4297 253.997 28.4297 254.07 28.4297C254.148 28.4245 254.224 28.4193 254.297 28.4141ZM263.422 25V30H261.148V24.8203C261.148 24.362 261.07 23.9922 260.914 23.7109C260.711 23.3151 260.326 23.1172 259.758 23.1172C259.169 23.1172 258.721 23.3151 258.414 23.7109C258.112 24.1016 257.961 24.6615 257.961 25.3906V30H255.742V18.5234H257.961V22.5938C258.284 22.099 258.656 21.7552 259.078 21.5625C259.505 21.3646 259.953 21.2656 260.422 21.2656C260.948 21.2656 261.424 21.3568 261.852 21.5391C262.284 21.7214 262.638 22 262.914 22.375C263.148 22.6927 263.292 23.0208 263.344 23.3594C263.396 23.6927 263.422 24.2396 263.422 25ZM277.203 29.7188C276.568 30.1094 275.786 30.3047 274.859 30.3047C273.333 30.3047 272.083 29.776 271.109 28.7188C270.094 27.6562 269.586 26.2031 269.586 24.3594C269.586 22.4948 270.099 21 271.125 19.875C272.151 18.75 273.508 18.1875 275.195 18.1875C276.659 18.1875 277.833 18.5599 278.719 19.3047C279.609 20.0443 280.12 20.9688 280.25 22.0781H277.883C277.701 21.2917 277.255 20.7422 276.547 20.4297C276.151 20.2578 275.711 20.1719 275.227 20.1719C274.299 20.1719 273.536 20.5234 272.938 21.2266C272.344 21.9245 272.047 22.9766 272.047 24.3828C272.047 25.7995 272.37 26.8021 273.016 27.3906C273.661 27.9792 274.396 28.2734 275.219 28.2734C276.026 28.2734 276.688 28.0417 277.203 27.5781C277.719 27.1094 278.036 26.4974 278.156 25.7422H275.492V23.8203H280.289V30H278.695L278.453 28.5625C277.99 29.1094 277.573 29.4948 277.203 29.7188ZM289.516 22.5625C290.234 23.4635 290.594 24.5286 290.594 25.7578C290.594 27.0078 290.234 28.0781 289.516 28.9688C288.797 29.8542 287.706 30.2969 286.242 30.2969C284.779 30.2969 283.688 29.8542 282.969 28.9688C282.25 28.0781 281.891 27.0078 281.891 25.7578C281.891 24.5286 282.25 23.4635 282.969 22.5625C283.688 21.6615 284.779 21.2109 286.242 21.2109C287.706 21.2109 288.797 21.6615 289.516 22.5625ZM286.234 23.0938C285.583 23.0938 285.081 23.3255 284.727 23.7891C284.378 24.2474 284.203 24.9036 284.203 25.7578C284.203 26.612 284.378 27.2708 284.727 27.7344C285.081 28.1979 285.583 28.4297 286.234 28.4297C286.885 28.4297 287.385 28.1979 287.734 27.7344C288.083 27.2708 288.258 26.612 288.258 25.7578C288.258 24.9036 288.083 24.2474 287.734 23.7891C287.385 23.3255 286.885 23.0938 286.234 23.0938ZM299.297 22.5625C300.016 23.4635 300.375 24.5286 300.375 25.7578C300.375 27.0078 300.016 28.0781 299.297 28.9688C298.578 29.8542 297.487 30.2969 296.023 30.2969C294.56 30.2969 293.469 29.8542 292.75 28.9688C292.031 28.0781 291.672 27.0078 291.672 25.7578C291.672 24.5286 292.031 23.4635 292.75 22.5625C293.469 21.6615 294.56 21.2109 296.023 21.2109C297.487 21.2109 298.578 21.6615 299.297 22.5625ZM296.016 23.0938C295.365 23.0938 294.862 23.3255 294.508 23.7891C294.159 24.2474 293.984 24.9036 293.984 25.7578C293.984 26.612 294.159 27.2708 294.508 27.7344C294.862 28.1979 295.365 28.4297 296.016 28.4297C296.667 28.4297 297.167 28.1979 297.516 27.7344C297.865 27.2708 298.039 26.612 298.039 25.7578C298.039 24.9036 297.865 24.2474 297.516 23.7891C297.167 23.3255 296.667 23.0938 296.016 23.0938ZM304.383 31.4922C304.622 31.6953 305.026 31.7969 305.594 31.7969C306.396 31.7969 306.932 31.5286 307.203 30.9922C307.38 30.6484 307.469 30.0703 307.469 29.2578V28.7109C307.255 29.0755 307.026 29.349 306.781 29.5312C306.339 29.8698 305.763 30.0391 305.055 30.0391C303.961 30.0391 303.086 29.6562 302.43 28.8906C301.779 28.1198 301.453 27.0781 301.453 25.7656C301.453 24.5 301.768 23.4375 302.398 22.5781C303.029 21.7135 303.922 21.2812 305.078 21.2812C305.505 21.2812 305.878 21.3464 306.195 21.4766C306.737 21.7005 307.174 22.112 307.508 22.7109V21.4844H309.672V29.5625C309.672 30.6615 309.487 31.4896 309.117 32.0469C308.482 33.0052 307.263 33.4844 305.461 33.4844C304.372 33.4844 303.484 33.2708 302.797 32.8438C302.109 32.4167 301.729 31.7786 301.656 30.9297H304.078C304.141 31.1901 304.242 31.3776 304.383 31.4922ZM304.008 27.0938C304.31 27.8125 304.852 28.1719 305.633 28.1719C306.154 28.1719 306.594 27.9766 306.953 27.5859C307.312 27.1901 307.492 26.5625 307.492 25.7031C307.492 24.8958 307.32 24.2812 306.977 23.8594C306.638 23.4375 306.182 23.2266 305.609 23.2266C304.828 23.2266 304.289 23.5938 303.992 24.3281C303.836 24.7188 303.758 25.2005 303.758 25.7734C303.758 26.2682 303.841 26.7083 304.008 27.0938ZM311.805 18.4844H314.031V30H311.805V18.4844ZM323.5 27.5C323.443 28.0052 323.18 28.5182 322.711 29.0391C321.982 29.8672 320.961 30.2812 319.648 30.2812C318.565 30.2812 317.609 29.9323 316.781 29.2344C315.953 28.5365 315.539 27.401 315.539 25.8281C315.539 24.3542 315.911 23.224 316.656 22.4375C317.406 21.651 318.378 21.2578 319.57 21.2578C320.279 21.2578 320.917 21.3906 321.484 21.6562C322.052 21.9219 322.521 22.3411 322.891 22.9141C323.224 23.4193 323.44 24.0052 323.539 24.6719C323.596 25.0625 323.62 25.625 323.609 26.3594H317.781C317.812 27.2135 318.081 27.8125 318.586 28.1562C318.893 28.3698 319.263 28.4766 319.695 28.4766C320.154 28.4766 320.526 28.3464 320.812 28.0859C320.969 27.9453 321.107 27.75 321.227 27.5H323.5ZM321.297 24.8906C321.26 24.3021 321.081 23.8568 320.758 23.5547C320.44 23.2474 320.044 23.0938 319.57 23.0938C319.055 23.0938 318.654 23.2552 318.367 23.5781C318.086 23.901 317.909 24.3385 317.836 24.8906H321.297Z" fill="#515151"/>
<defs>
<clipPath id="clip0_27_1132">
<rect width="18.25" height="18.25" fill="white" transform="translate(135.375 14.875)"/>
</clipPath>
</defs>
</svg>
