<svg width="460" height="48" viewBox="0 0 460 48" fill="none" xmlns="http://www.w3.org/2000/svg">
<rect x="0.5" y="0.5" width="459" height="47" rx="7.5" stroke="#9D9797"/>
<g clip-path="url(#clip0_45_1705)">
<path d="M158.733 15.4752C156.909 16.1078 155.337 17.3085 154.246 18.9008C153.155 20.4932 152.604 22.3933 152.673 24.3222C152.742 26.251 153.428 28.1068 154.63 29.6171C155.832 31.1274 157.486 32.2124 159.35 32.7129C160.861 33.1029 162.445 33.12 163.964 32.7628C165.34 32.4537 166.613 31.7924 167.657 30.8437C168.743 29.8262 169.532 28.5318 169.938 27.0996C170.379 25.5422 170.458 23.9044 170.168 22.3119H161.681V25.8321H166.596C166.498 26.3936 166.287 26.9294 165.977 27.4077C165.667 27.8859 165.264 28.2966 164.791 28.6152C164.191 29.0122 163.514 29.2793 162.805 29.3994C162.093 29.5317 161.363 29.5317 160.652 29.3994C159.931 29.2503 159.248 28.9527 158.649 28.5254C157.685 27.8433 156.961 26.8743 156.581 25.7566C156.195 24.6179 156.195 23.3835 156.581 22.2449C156.852 21.4467 157.299 20.72 157.89 20.119C158.566 19.4186 159.422 18.9179 160.364 18.672C161.306 18.426 162.297 18.4442 163.23 18.7246C163.958 18.9481 164.624 19.3387 165.174 19.8652C165.729 19.3139 166.282 18.7612 166.834 18.207C167.119 17.9091 167.43 17.6253 167.711 17.3202C166.871 16.5381 165.884 15.9296 164.808 15.5294C162.849 14.8179 160.705 14.7988 158.733 15.4752Z" fill="white"/>
<path d="M158.732 15.4753C160.704 14.7984 162.848 14.817 164.808 15.528C165.884 15.9309 166.87 16.5424 167.709 17.3274C167.424 17.6325 167.123 17.9176 166.832 18.2142C166.279 18.7665 165.726 19.3168 165.174 19.8653C164.623 19.3388 163.958 18.9482 163.229 18.7246C162.297 18.4432 161.306 18.424 160.364 18.6689C159.422 18.9139 158.565 19.4137 157.888 20.1133C157.297 20.7144 156.85 21.4411 156.579 22.2392L153.624 19.9508C154.682 17.8529 156.513 16.2481 158.732 15.4753Z" fill="#E33629"/>
<path d="M152.84 22.2176C152.999 21.4303 153.262 20.6679 153.624 19.9507L156.58 22.2447C156.193 23.3834 156.193 24.6178 156.58 25.7564C155.595 26.5169 154.61 27.2811 153.624 28.0491C152.719 26.2474 152.443 24.1945 152.84 22.2176Z" fill="#F8BD00"/>
<path d="M161.681 22.3106H170.167C170.458 23.9031 170.379 25.5409 169.938 27.0984C169.532 28.5305 168.743 29.8249 167.657 30.8425C166.703 30.0982 165.745 29.3596 164.791 28.6154C165.264 28.2964 165.667 27.8852 165.977 27.4065C166.288 26.9278 166.498 26.3914 166.596 25.8294H161.681C161.68 24.6574 161.681 23.484 161.681 22.3106Z" fill="#587DBD"/>
<path d="M153.623 28.0492C154.608 27.2888 155.593 26.5246 156.578 25.7566C156.959 26.8747 157.684 27.8438 158.648 28.5254C159.25 28.9507 159.934 29.2459 160.656 29.3923C161.367 29.5246 162.097 29.5246 162.809 29.3923C163.518 29.2722 164.195 29.0051 164.795 28.6081C165.749 29.3524 166.707 30.091 167.661 30.8352C166.617 31.7844 165.345 32.4462 163.968 32.7557C162.449 33.1129 160.865 33.0958 159.354 32.7058C158.159 32.3867 157.043 31.8241 156.075 31.0534C155.051 30.2402 154.214 29.2155 153.623 28.0492Z" fill="#319F43"/>
</g>
<path d="M176.844 18.5234H178.398V28.6328H184.211V30H176.844V18.5234ZM188.883 29.0938C189.815 29.0938 190.453 28.7422 190.797 28.0391C191.146 27.3307 191.32 26.5443 191.32 25.6797C191.32 24.8984 191.195 24.263 190.945 23.7734C190.549 23.0026 189.867 22.6172 188.898 22.6172C188.039 22.6172 187.414 22.9453 187.023 23.6016C186.633 24.2578 186.438 25.0495 186.438 25.9766C186.438 26.8672 186.633 27.6094 187.023 28.2031C187.414 28.7969 188.034 29.0938 188.883 29.0938ZM188.938 21.3906C190.016 21.3906 190.927 21.75 191.672 22.4688C192.417 23.1875 192.789 24.2448 192.789 25.6406C192.789 26.9896 192.461 28.1042 191.805 28.9844C191.148 29.8646 190.13 30.3047 188.75 30.3047C187.599 30.3047 186.685 29.9167 186.008 29.1406C185.331 28.3594 184.992 27.3125 184.992 26C184.992 24.5938 185.349 23.474 186.062 22.6406C186.776 21.8073 187.734 21.3906 188.938 21.3906ZM197.422 21.4844C198.078 21.4844 198.651 21.6458 199.141 21.9688C199.406 22.151 199.677 22.4167 199.953 22.7656V21.7109H201.25V29.3203C201.25 30.3828 201.094 31.2214 200.781 31.8359C200.198 32.9714 199.096 33.5391 197.477 33.5391C196.576 33.5391 195.818 33.3359 195.203 32.9297C194.589 32.5286 194.245 31.8984 194.172 31.0391H195.602C195.669 31.4141 195.805 31.7031 196.008 31.9062C196.326 32.2188 196.826 32.375 197.508 32.375C198.586 32.375 199.292 31.9948 199.625 31.2344C199.823 30.7865 199.914 29.987 199.898 28.8359C199.617 29.263 199.279 29.5807 198.883 29.7891C198.487 29.9974 197.964 30.1016 197.312 30.1016C196.406 30.1016 195.612 29.7812 194.93 29.1406C194.253 28.4948 193.914 27.4297 193.914 25.9453C193.914 24.5443 194.255 23.4505 194.938 22.6641C195.625 21.8776 196.453 21.4844 197.422 21.4844ZM199.953 25.7812C199.953 24.7448 199.74 23.9766 199.312 23.4766C198.885 22.9766 198.341 22.7266 197.68 22.7266C196.69 22.7266 196.013 23.1901 195.648 24.1172C195.456 24.612 195.359 25.2604 195.359 26.0625C195.359 27.0052 195.549 27.724 195.93 28.2188C196.315 28.7083 196.831 28.9531 197.477 28.9531C198.487 28.9531 199.198 28.4974 199.609 27.5859C199.839 27.0703 199.953 26.4688 199.953 25.7812ZM203.375 21.6719H204.805V30H203.375V21.6719ZM203.375 18.5234H204.805V20.1172H203.375V18.5234ZM206.938 21.6328H208.273V22.8203C208.669 22.3307 209.089 21.9792 209.531 21.7656C209.974 21.5521 210.466 21.4453 211.008 21.4453C212.195 21.4453 212.997 21.8594 213.414 22.6875C213.643 23.1406 213.758 23.7891 213.758 24.6328V30H212.328V24.7266C212.328 24.2161 212.253 23.8047 212.102 23.4922C211.852 22.9714 211.398 22.7109 210.742 22.7109C210.409 22.7109 210.135 22.7448 209.922 22.8125C209.536 22.9271 209.198 23.1562 208.906 23.5C208.672 23.776 208.518 24.0625 208.445 24.3594C208.378 24.651 208.344 25.0703 208.344 25.6172V30H206.938V21.6328ZM220.945 21.6328L222.555 28.2266L224.188 21.6328H225.766L227.406 28.1875L229.117 21.6328H230.523L228.094 30H226.633L224.93 23.5234L223.281 30H221.82L219.406 21.6328H220.945ZM231.859 21.6719H233.289V30H231.859V21.6719ZM231.859 18.5234H233.289V20.1172H231.859V18.5234ZM235.703 19.2969H237.125V21.6328H238.461V22.7812H237.125V28.2422C237.125 28.5339 237.224 28.7292 237.422 28.8281C237.531 28.8854 237.714 28.9141 237.969 28.9141C238.036 28.9141 238.109 28.9141 238.188 28.9141C238.266 28.9089 238.357 28.901 238.461 28.8906V30C238.299 30.0469 238.13 30.0807 237.953 30.1016C237.781 30.1224 237.594 30.1328 237.391 30.1328C236.734 30.1328 236.289 29.9661 236.055 29.6328C235.82 29.2943 235.703 28.8568 235.703 28.3203V22.7812H234.57V21.6328H235.703V19.2969ZM239.875 18.4844H241.281V22.7656C241.615 22.3438 241.914 22.0469 242.18 21.875C242.633 21.5781 243.198 21.4297 243.875 21.4297C245.089 21.4297 245.911 21.8542 246.344 22.7031C246.578 23.1667 246.695 23.8099 246.695 24.6328V30H245.25V24.7266C245.25 24.112 245.172 23.6615 245.016 23.375C244.76 22.9167 244.281 22.6875 243.578 22.6875C242.995 22.6875 242.466 22.888 241.992 23.2891C241.518 23.6901 241.281 24.4479 241.281 25.5625V30H239.875V18.4844ZM260.484 29.7188C259.849 30.1094 259.068 30.3047 258.141 30.3047C256.615 30.3047 255.365 29.776 254.391 28.7188C253.375 27.6562 252.867 26.2031 252.867 24.3594C252.867 22.4948 253.38 21 254.406 19.875C255.432 18.75 256.789 18.1875 258.477 18.1875C259.94 18.1875 261.115 18.5599 262 19.3047C262.891 20.0443 263.401 20.9688 263.531 22.0781H261.164C260.982 21.2917 260.536 20.7422 259.828 20.4297C259.432 20.2578 258.992 20.1719 258.508 20.1719C257.581 20.1719 256.818 20.5234 256.219 21.2266C255.625 21.9245 255.328 22.9766 255.328 24.3828C255.328 25.7995 255.651 26.8021 256.297 27.3906C256.943 27.9792 257.677 28.2734 258.5 28.2734C259.307 28.2734 259.969 28.0417 260.484 27.5781C261 27.1094 261.318 26.4974 261.438 25.7422H258.773V23.8203H263.57V30H261.977L261.734 28.5625C261.271 29.1094 260.854 29.4948 260.484 29.7188ZM272.797 22.5625C273.516 23.4635 273.875 24.5286 273.875 25.7578C273.875 27.0078 273.516 28.0781 272.797 28.9688C272.078 29.8542 270.987 30.2969 269.523 30.2969C268.06 30.2969 266.969 29.8542 266.25 28.9688C265.531 28.0781 265.172 27.0078 265.172 25.7578C265.172 24.5286 265.531 23.4635 266.25 22.5625C266.969 21.6615 268.06 21.2109 269.523 21.2109C270.987 21.2109 272.078 21.6615 272.797 22.5625ZM269.516 23.0938C268.865 23.0938 268.362 23.3255 268.008 23.7891C267.659 24.2474 267.484 24.9036 267.484 25.7578C267.484 26.612 267.659 27.2708 268.008 27.7344C268.362 28.1979 268.865 28.4297 269.516 28.4297C270.167 28.4297 270.667 28.1979 271.016 27.7344C271.365 27.2708 271.539 26.612 271.539 25.7578C271.539 24.9036 271.365 24.2474 271.016 23.7891C270.667 23.3255 270.167 23.0938 269.516 23.0938ZM282.578 22.5625C283.297 23.4635 283.656 24.5286 283.656 25.7578C283.656 27.0078 283.297 28.0781 282.578 28.9688C281.859 29.8542 280.768 30.2969 279.305 30.2969C277.841 30.2969 276.75 29.8542 276.031 28.9688C275.312 28.0781 274.953 27.0078 274.953 25.7578C274.953 24.5286 275.312 23.4635 276.031 22.5625C276.75 21.6615 277.841 21.2109 279.305 21.2109C280.768 21.2109 281.859 21.6615 282.578 22.5625ZM279.297 23.0938C278.646 23.0938 278.143 23.3255 277.789 23.7891C277.44 24.2474 277.266 24.9036 277.266 25.7578C277.266 26.612 277.44 27.2708 277.789 27.7344C278.143 28.1979 278.646 28.4297 279.297 28.4297C279.948 28.4297 280.448 28.1979 280.797 27.7344C281.146 27.2708 281.32 26.612 281.32 25.7578C281.32 24.9036 281.146 24.2474 280.797 23.7891C280.448 23.3255 279.948 23.0938 279.297 23.0938ZM287.664 31.4922C287.904 31.6953 288.307 31.7969 288.875 31.7969C289.677 31.7969 290.214 31.5286 290.484 30.9922C290.661 30.6484 290.75 30.0703 290.75 29.2578V28.7109C290.536 29.0755 290.307 29.349 290.062 29.5312C289.62 29.8698 289.044 30.0391 288.336 30.0391C287.242 30.0391 286.367 29.6562 285.711 28.8906C285.06 28.1198 284.734 27.0781 284.734 25.7656C284.734 24.5 285.049 23.4375 285.68 22.5781C286.31 21.7135 287.203 21.2812 288.359 21.2812C288.786 21.2812 289.159 21.3464 289.477 21.4766C290.018 21.7005 290.456 22.112 290.789 22.7109V21.4844H292.953V29.5625C292.953 30.6615 292.768 31.4896 292.398 32.0469C291.763 33.0052 290.544 33.4844 288.742 33.4844C287.654 33.4844 286.766 33.2708 286.078 32.8438C285.391 32.4167 285.01 31.7786 284.938 30.9297H287.359C287.422 31.1901 287.523 31.3776 287.664 31.4922ZM287.289 27.0938C287.591 27.8125 288.133 28.1719 288.914 28.1719C289.435 28.1719 289.875 27.9766 290.234 27.5859C290.594 27.1901 290.773 26.5625 290.773 25.7031C290.773 24.8958 290.602 24.2812 290.258 23.8594C289.919 23.4375 289.464 23.2266 288.891 23.2266C288.109 23.2266 287.57 23.5938 287.273 24.3281C287.117 24.7188 287.039 25.2005 287.039 25.7734C287.039 26.2682 287.122 26.7083 287.289 27.0938ZM295.086 18.4844H297.312V30H295.086V18.4844ZM306.781 27.5C306.724 28.0052 306.461 28.5182 305.992 29.0391C305.263 29.8672 304.242 30.2812 302.93 30.2812C301.846 30.2812 300.891 29.9323 300.062 29.2344C299.234 28.5365 298.82 27.401 298.82 25.8281C298.82 24.3542 299.193 23.224 299.938 22.4375C300.688 21.651 301.659 21.2578 302.852 21.2578C303.56 21.2578 304.198 21.3906 304.766 21.6562C305.333 21.9219 305.802 22.3411 306.172 22.9141C306.505 23.4193 306.721 24.0052 306.82 24.6719C306.878 25.0625 306.901 25.625 306.891 26.3594H301.062C301.094 27.2135 301.362 27.8125 301.867 28.1562C302.174 28.3698 302.544 28.4766 302.977 28.4766C303.435 28.4766 303.807 28.3464 304.094 28.0859C304.25 27.9453 304.388 27.75 304.508 27.5H306.781ZM304.578 24.8906C304.542 24.3021 304.362 23.8568 304.039 23.5547C303.721 23.2474 303.326 23.0938 302.852 23.0938C302.336 23.0938 301.935 23.2552 301.648 23.5781C301.367 23.901 301.19 24.3385 301.117 24.8906H304.578Z" fill="#515151"/>
<defs>
<clipPath id="clip0_45_1705">
<rect width="18.25" height="18.25" fill="white" transform="translate(152.375 14.875)"/>
</clipPath>
</defs>
</svg>
