<svg width="14" height="15" viewBox="0 0 14 15" fill="none" xmlns="http://www.w3.org/2000/svg">
<path d="M7 0.333496C10.682 0.333496 13.6667 3.31816 13.6667 7.00016C13.6667 10.6822 10.682 13.6668 7 13.6668C3.318 13.6668 0.333336 10.6822 0.333336 7.00016C0.333336 3.31816 3.318 0.333496 7 0.333496ZM7 1.66683C5.58551 1.66683 4.22896 2.22873 3.22877 3.22893C2.22857 4.22912 1.66667 5.58567 1.66667 7.00016C1.66667 8.41465 2.22857 9.7712 3.22877 10.7714C4.22896 11.7716 5.58551 12.3335 7 12.3335C8.41449 12.3335 9.77104 11.7716 10.7712 10.7714C11.7714 9.7712 12.3333 8.41465 12.3333 7.00016C12.3333 5.58567 11.7714 4.22912 10.7712 3.22893C9.77104 2.22873 8.41449 1.66683 7 1.66683ZM9 3.66683C9.17681 3.66683 9.34638 3.73707 9.47141 3.86209C9.59643 3.98712 9.66667 4.15668 9.66667 4.3335C9.66667 4.51031 9.59643 4.67988 9.47141 4.8049C9.34638 4.92992 9.17681 5.00016 9 5.00016H7.97667C8.096 5.20683 8.18867 5.43016 8.24934 5.66683H9C9.17681 5.66683 9.34638 5.73707 9.47141 5.86209C9.59643 5.98712 9.66667 6.15668 9.66667 6.3335C9.66667 6.51031 9.59643 6.67988 9.47141 6.8049C9.34638 6.92992 9.17681 7.00016 9 7.00016H8.24934C8.14694 7.39539 7.95539 7.76191 7.68937 8.07161C7.42334 8.38132 7.08992 8.62598 6.71467 8.78683L8.06667 9.80016C8.20812 9.90625 8.30163 10.0642 8.32663 10.2392C8.35164 10.4142 8.30609 10.592 8.2 10.7335C8.09392 10.8749 7.93598 10.9685 7.76095 10.9935C7.58592 11.0185 7.40812 10.9729 7.26667 10.8668L4.60667 8.8715C4.49292 8.78789 4.40852 8.67046 4.36554 8.53599C4.32255 8.40153 4.32318 8.25691 4.36734 8.12283C4.45667 7.8555 4.714 7.6635 5.00734 7.66683H5.66667C5.90071 7.66682 6.13063 7.60521 6.33332 7.48819C6.536 7.37116 6.70431 7.20285 6.82134 7.00016H5C4.82319 7.00016 4.65362 6.92992 4.5286 6.8049C4.40357 6.67988 4.33334 6.51031 4.33334 6.3335C4.33334 6.15668 4.40357 5.98712 4.5286 5.86209C4.65362 5.73707 4.82319 5.66683 5 5.66683H6.82134C6.70431 5.46414 6.536 5.29583 6.33332 5.1788C6.13063 5.06178 5.90071 5.00017 5.66667 5.00016H5C4.82319 5.00016 4.65362 4.92992 4.5286 4.8049C4.40357 4.67988 4.33334 4.51031 4.33334 4.3335C4.33334 4.15668 4.40357 3.98712 4.5286 3.86209C4.65362 3.73707 4.82319 3.66683 5 3.66683H9Z" fill="#CBCBCB"/>
</svg>
